<svg xmlns="http://www.w3.org/2000/svg" viewBox="0 0 100 100" width="100" height="100">
  <!-- LOCS III Cortical Grade 4 - Significant spokes (~50-75%) -->
  <defs>
    <radialGradient id="c4-cortex" cx="50%" cy="50%" r="50%">
      <stop offset="0%" stop-color="transparent"/>
      <stop offset="45%" stop-color="#e0e0e0" stop-opacity="0.2"/>
      <stop offset="100%" stop-color="#b0b0b0" stop-opacity="0.5"/>
    </radialGradient>
  </defs>
  <!-- Lens outline -->
  <ellipse cx="50" cy="50" rx="45" ry="45" fill="none" stroke="#666" stroke-width="1.5"/>
  <!-- Cortex background -->
  <ellipse cx="50" cy="50" rx="44" ry="44" fill="url(#c4-cortex)"/>
  <!-- Nucleus -->
  <circle cx="50" cy="50" r="20" fill="none" stroke="#aaa" stroke-width="0.7"/>
  <!-- Cortical spokes (~65% coverage) - wider wedges -->
  <path d="M 50 5 L 60 30 L 40 30 Z" fill="#a0a0a0" fill-opacity="0.75"/>
  <path d="M 68 10 L 70 32 L 54 30 Z" fill="#a5a5a5" fill-opacity="0.7"/>
  <path d="M 85 20 L 68 40 L 56 32 Z" fill="#a0a0a0" fill-opacity="0.75"/>
  <path d="M 95 50 L 70 58 L 70 42 Z" fill="#a0a0a0" fill-opacity="0.75"/>
  <path d="M 90 68 L 68 60 L 70 46 Z" fill="#a5a5a5" fill-opacity="0.7"/>
  <path d="M 85 80 L 60 68 L 70 56 Z" fill="#a0a0a0" fill-opacity="0.75"/>
  <path d="M 68 90 L 56 68 L 70 66 Z" fill="#a5a5a5" fill-opacity="0.7"/>
  <path d="M 50 95 L 40 70 L 60 70 Z" fill="#a0a0a0" fill-opacity="0.75"/>
  <path d="M 32 90 L 30 68 L 46 70 Z" fill="#a5a5a5" fill-opacity="0.7"/>
  <path d="M 15 80 L 40 66 L 30 56 Z" fill="#a0a0a0" fill-opacity="0.75"/>
  <path d="M 5 50 L 30 42 L 30 58 Z" fill="#a0a0a0" fill-opacity="0.75"/>
  <path d="M 15 20 L 40 32 L 30 44 Z" fill="#a0a0a0" fill-opacity="0.75"/>
</svg>