<svg xmlns="http://www.w3.org/2000/svg" viewBox="0 0 100 100" width="100" height="100">
  <!-- LOCS III Cortical Grade 5 - Extensive/near-total spokes (>75%) -->
  <defs>
    <radialGradient id="c5-cortex" cx="50%" cy="50%" r="50%">
      <stop offset="0%" stop-color="transparent"/>
      <stop offset="35%" stop-color="#c8c8c8" stop-opacity="0.3"/>
      <stop offset="100%" stop-color="#909090" stop-opacity="0.65"/>
    </radialGradient>
    <radialGradient id="c5-inner" cx="50%" cy="50%" r="50%">
      <stop offset="0%" stop-color="transparent"/>
      <stop offset="100%" stop-color="#a8a8a8" stop-opacity="0.4"/>
    </radialGradient>
  </defs>
  <!-- Lens outline -->
  <ellipse cx="50" cy="50" rx="45" ry="45" fill="none" stroke="#666" stroke-width="1.5"/>
  <!-- Cortex - heavily opacified -->
  <ellipse cx="50" cy="50" rx="44" ry="44" fill="url(#c5-cortex)"/>
  <!-- Inner cortex opacity -->
  <ellipse cx="50" cy="50" rx="35" ry="35" fill="url(#c5-inner)"/>
  <!-- Nucleus (may be partially obscured) -->
  <circle cx="50" cy="50" r="18" fill="none" stroke="#999" stroke-width="0.8"/>
  <!-- Dense cortical spokes - near-complete coverage -->
  <path d="M 50 5 L 62 32 L 38 32 Z" fill="#8a8a8a" fill-opacity="0.8"/>
  <path d="M 72 8 L 70 34 L 52 30 Z" fill="#909090" fill-opacity="0.78"/>
  <path d="M 88 22 L 68 42 L 56 32 Z" fill="#8a8a8a" fill-opacity="0.8"/>
  <path d="M 95 45 L 68 52 L 66 38 Z" fill="#909090" fill-opacity="0.78"/>
  <path d="M 95 55 L 68 62 L 68 48 Z" fill="#8a8a8a" fill-opacity="0.8"/>
  <path d="M 88 78 L 66 62 L 70 48 Z" fill="#909090" fill-opacity="0.78"/>
  <path d="M 72 92 L 54 68 L 68 64 Z" fill="#8a8a8a" fill-opacity="0.8"/>
  <path d="M 50 95 L 38 68 L 62 68 Z" fill="#909090" fill-opacity="0.78"/>
  <path d="M 28 92 L 32 66 L 48 68 Z" fill="#8a8a8a" fill-opacity="0.8"/>
  <path d="M 12 78 L 34 62 L 30 48 Z" fill="#909090" stop-opacity="0.78"/>
  <path d="M 5 55 L 32 48 L 32 62 Z" fill="#8a8a8a" fill-opacity="0.8"/>
  <path d="M 5 45 L 32 38 L 34 52 Z" fill="#909090" fill-opacity="0.78"/>
  <path d="M 12 22 L 34 38 L 30 52 Z" fill="#8a8a8a" fill-opacity="0.8"/>
  <path d="M 28 8 L 48 32 L 32 36 Z" fill="#909090" fill-opacity="0.78"/>
</svg>